<?xml version="1.0" standalone="no"?>
<!DOCTYPE svg PUBLIC "-//W3C//DTD SVG 20010904//EN"
 "http://www.w3.org/TR/2001/REC-SVG-20010904/DTD/svg10.dtd">
<svg version="1.0" xmlns="http://www.w3.org/2000/svg"
 width="512.000000pt" height="512.000000pt" viewBox="0 0 512.000000 512.000000"
 preserveAspectRatio="xMidYMid meet">
<metadata>
Created by potrace 1.16, written by Peter Selinger 2001-2019
</metadata>
<g transform="translate(0.000000,512.000000) scale(0.100000,-0.100000)"
fill="#000000" stroke="none">
<path d="M3430 4962 c0 -14 -31 -247 -33 -247 -1 -1 -36 -11 -77 -24 -41 -13
-107 -40 -146 -60 l-72 -37 -28 23 c-16 13 -62 49 -102 80 l-74 56 -159 -159
c-87 -87 -159 -164 -159 -170 0 -6 34 -54 75 -106 l74 -95 -39 -78 c-21 -42
-49 -109 -61 -149 l-23 -73 -110 -12 c-61 -7 -119 -15 -128 -17 -17 -5 -18
-25 -18 -235 0 -126 4 -229 8 -229 13 0 247 -31 248 -33 1 -1 12 -33 24 -72
13 -38 40 -104 61 -146 l38 -77 -74 -95 c-41 -53 -75 -99 -75 -104 0 -18 318
-326 332 -320 7 3 53 37 102 76 l90 69 75 -37 c42 -21 108 -48 146 -61 39 -12
71 -23 72 -24 2 -1 33 -235 33 -248 0 -5 105 -7 233 -6 l232 3 15 124 15 125
90 31 c50 17 117 45 149 63 l57 31 96 -75 c52 -41 100 -74 107 -74 6 0 83 72
170 159 l159 159 -56 74 c-31 40 -67 86 -80 102 l-23 28 37 72 c20 39 47 105
60 146 13 41 23 76 24 77 0 2 233 33 247 33 5 0 7 105 6 233 l-3 232 -123 15
-124 15 -23 71 c-12 40 -39 105 -59 145 -20 41 -36 78 -36 82 0 4 34 51 76
104 l75 97 -164 164 -165 165 -89 -70 c-48 -38 -94 -72 -100 -77 -7 -4 -47 9
-90 30 -43 21 -109 48 -148 60 l-70 22 -15 124 -15 123 -232 3 c-128 1 -233
-1 -233 -6z m378 -548 c452 -93 726 -556 582 -986 -99 -295 -344 -493 -651
-527 -377 -42 -737 218 -825 596 -9 38 -15 111 -15 168 1 323 199 605 503 716
137 50 270 61 406 33z"/>
<path d="M3510 4234 c-153 -40 -305 -164 -374 -304 -133 -273 -53 -587 192
-754 179 -123 402 -137 602 -40 142 70 265 222 305 379 19 75 19 223 0 295
-55 207 -218 370 -425 425 -70 19 -228 18 -300 -1z"/>
<path d="M325 4365 c-5 -2 -22 -6 -37 -9 -39 -9 -98 -64 -119 -111 -18 -38
-19 -105 -19 -1367 l0 -1328 2260 0 2260 0 0 495 c0 272 -3 495 -8 495 -4 0
-54 -47 -112 -105 -58 -58 -108 -105 -112 -105 -4 0 -57 38 -117 85 -60 47
-116 85 -125 85 -12 0 -38 -10 -94 -36 -1 0 -9 -54 -17 -120 -8 -65 -17 -134
-20 -151 l-6 -33 -398 0 -397 0 -18 154 -18 154 -54 18 -53 18 -96 -75 c-53
-41 -105 -80 -116 -88 -19 -14 -37 2 -301 266 l-281 281 91 117 92 117 -16 36
c-9 20 -18 44 -21 53 -3 12 -31 18 -119 28 -64 7 -131 15 -150 18 l-34 6 0
397 0 398 38 6 c20 3 78 10 127 16 135 16 130 14 153 70 l21 51 -66 85 -66 84
-1021 -1 c-562 0 -1025 -2 -1031 -4z m1325 -1008 l0 -102 68 -32 c37 -17 88
-48 115 -68 l48 -36 87 50 c77 44 88 48 96 33 5 -9 47 -82 92 -161 l83 -144
-81 -48 -81 -47 0 -142 0 -142 81 -47 82 -47 -83 -144 c-46 -80 -88 -153 -93
-162 -8 -15 -19 -11 -96 33 l-87 50 -48 -36 c-27 -20 -78 -51 -115 -68 l-68
-32 0 -102 0 -103 -190 0 -190 0 0 104 0 103 -44 17 c-37 14 -133 72 -180 109
-7 6 -45 -11 -98 -41 l-86 -50 -93 160 c-73 127 -89 162 -78 169 8 5 47 28 87
50 67 38 72 42 65 67 -4 15 -7 65 -7 112 0 47 3 97 7 112 7 25 2 29 -65 67
-40 22 -79 45 -87 50 -11 7 5 42 79 170 l93 161 31 -19 c67 -41 137 -81 142
-81 2 0 26 17 53 38 27 22 79 52 115 68 l66 28 0 103 0 103 190 0 190 0 0
-103z"/>
<path d="M1394 3060 c-217 -32 -375 -252 -335 -467 32 -175 169 -309 339 -333
64 -9 165 3 217 24 194 82 294 311 223 513 -64 183 -249 292 -444 263z m175
-243 c111 -74 106 -248 -11 -320 -111 -69 -250 -11 -288 120 -19 61 2 125 56
179 67 67 161 75 243 21z"/>
<path d="M150 1188 c0 -146 3 -179 19 -213 23 -51 79 -101 128 -114 55 -16
4173 -15 4228 0 52 15 119 82 134 134 6 22 11 113 11 203 l0 162 -2260 0
-2260 0 0 -172z"/>
<path d="M1750 510 l0 -150 -365 0 -365 0 -32 -29 c-28 -25 -33 -36 -33 -75 0
-36 6 -51 28 -73 l27 -28 1450 0 1450 0 27 28 c22 22 28 37 28 73 0 39 -5 50
-33 75 l-32 29 -365 0 -365 0 0 150 0 150 -710 0 -710 0 0 -150z"/>
</g>
</svg>
