<?xml version="1.0" standalone="no"?>
<!DOCTYPE svg PUBLIC "-//W3C//DTD SVG 20010904//EN"
 "http://www.w3.org/TR/2001/REC-SVG-20010904/DTD/svg10.dtd">
<svg version="1.0" xmlns="http://www.w3.org/2000/svg"
 width="512.000000pt" height="512.000000pt" viewBox="0 0 512.000000 512.000000"
 preserveAspectRatio="xMidYMid meet">
<metadata>
Created by potrace 1.16, written by Peter Selinger 2001-2019
</metadata>
<g transform="translate(0.000000,512.000000) scale(0.100000,-0.100000)"
fill="#000000" stroke="none">
<path d="M4205 4993 c-253 -68 -471 -132 -484 -142 -47 -33 -65 -68 -65 -125
-1 -58 16 -92 66 -129 52 -38 94 -33 403 51 160 43 291 78 293 76 6 -4 -108
-182 -189 -296 -632 -885 -1652 -1631 -2719 -1989 -435 -146 -814 -217 -1252
-235 -127 -6 -164 -11 -188 -25 -45 -28 -70 -76 -70 -134 0 -67 27 -111 87
-137 43 -19 58 -20 192 -14 701 33 1338 200 2016 531 609 298 1133 673 1620
1160 289 289 533 586 696 849 35 58 65 103 66 102 2 -1 35 -121 74 -267 39
-145 78 -277 87 -294 10 -16 37 -40 62 -52 73 -38 135 -27 189 31 51 54 46 85
-94 607 -76 282 -135 485 -147 501 -28 40 -69 58 -130 57 -33 -1 -224 -48
-513 -126z"/>
<path d="M3976 3391 c-16 -11 -38 -34 -50 -53 l-21 -33 -3 -1502 -2 -1503
-145 0 -145 0 0 1008 c0 970 -1 1008 -19 1036 -10 15 -32 37 -47 47 -27 18
-53 19 -383 19 -332 0 -356 -1 -385 -19 -17 -11 -40 -35 -51 -53 -20 -32 -20
-53 -23 -1035 l-3 -1003 -144 0 -145 0 0 733 c0 700 -1 733 -19 761 -10 15
-32 37 -47 47 -27 18 -53 19 -383 19 -332 0 -356 -1 -385 -19 -17 -11 -40 -35
-51 -53 -19 -32 -20 -53 -23 -760 l-3 -728 -144 0 -145 0 0 553 c0 524 -1 553
-19 581 -10 15 -32 37 -47 47 -27 18 -53 19 -384 19 -331 0 -357 -1 -384 -19
-15 -10 -37 -32 -47 -47 -18 -28 -19 -57 -19 -581 l0 -553 -107 0 c-89 0 -113
-3 -137 -19 -46 -31 -66 -69 -66 -131 0 -62 20 -100 66 -131 28 -18 96 -19
2494 -19 2398 0 2466 1 2494 19 46 31 66 69 66 131 0 62 -20 100 -66 131 -24
16 -48 19 -136 19 l-108 0 0 1508 c0 1459 -1 1508 -19 1536 -10 15 -32 37 -47
47 -27 18 -53 19 -384 19 -333 0 -357 -1 -384 -19z"/>
</g>
</svg>
