<svg width="1581" height="814" viewBox="0 0 1581 814" fill="none" xmlns="http://www.w3.org/2000/svg">
<g opacity="0.38">
<path d="M143.509 592.239L100.59 570C58.3226 585.214 0 654.652 0 654.652L40.1503 677.098C96.3787 606.87 143.509 592.239 143.509 592.239Z" fill="#242424"/>
<path d="M287.852 596.727L243.468 571.267C243.468 571.267 221.918 593.796 166.118 620.42C110.317 647.044 73.2294 695.034 73.2294 695.034L112.591 717.272C112.591 717.272 130.02 691.23 195.009 658.163C259.997 625.097 287.852 596.727 287.852 596.727Z" fill="#242424"/>
<path d="M259.637 666.663C186.408 700.333 151.549 737.556 151.549 737.556L192.42 759.4C214.307 737.452 265.717 711.701 310.754 692.393C355.79 673.086 400.152 626.966 400.152 626.966C433.546 645.485 474.463 627.341 474.463 627.341L381.687 575.943C354.732 607.845 332.867 632.994 259.637 666.663Z" fill="#242424"/>
</g>
<g opacity="0.38">
<path d="M630.509 372.239L587.59 350C545.323 365.214 487 434.652 487 434.652L527.15 457.098C583.379 386.87 630.509 372.239 630.509 372.239Z" fill="#242424"/>
<path d="M774.852 376.727L730.468 351.267C730.468 351.267 708.918 373.796 653.118 400.42C597.317 427.044 560.229 475.034 560.229 475.034L599.591 497.272C599.591 497.272 617.02 471.23 682.009 438.163C746.997 405.097 774.852 376.727 774.852 376.727Z" fill="#242424"/>
<path d="M746.637 446.663C673.407 480.333 638.549 517.556 638.549 517.556L679.42 539.4C701.307 517.452 752.717 491.701 797.754 472.393C842.79 453.086 887.152 406.966 887.152 406.966C920.546 425.485 961.463 407.341 961.463 407.341L868.687 355.943C841.732 387.845 819.867 412.994 746.637 446.663Z" fill="#242424"/>
</g>
<g opacity="0.38">
<path d="M828.509 646.239L785.59 624C743.323 639.214 685 708.652 685 708.652L725.15 731.098C781.379 660.87 828.509 646.239 828.509 646.239Z" fill="#242424"/>
<path d="M972.852 650.727L928.468 625.267C928.468 625.267 906.918 647.796 851.118 674.42C795.317 701.044 758.229 749.034 758.229 749.034L797.591 771.272C797.591 771.272 815.02 745.23 880.009 712.163C944.997 679.097 972.852 650.727 972.852 650.727Z" fill="#242424"/>
<path d="M944.637 720.663C871.407 754.333 836.549 791.556 836.549 791.556L877.42 813.4C899.307 791.452 950.717 765.701 995.754 746.393C1040.79 727.086 1085.15 680.966 1085.15 680.966C1118.55 699.485 1159.46 681.341 1159.46 681.341L1066.69 629.943C1039.73 661.845 1017.87 686.994 944.637 720.663Z" fill="#242424"/>
</g>
<g opacity="0.38">
<path d="M1249.51 334.239L1206.59 312C1164.32 327.214 1106 396.652 1106 396.652L1146.15 419.098C1202.38 348.87 1249.51 334.239 1249.51 334.239Z" fill="#242424"/>
<path d="M1393.85 338.727L1349.47 313.267C1349.47 313.267 1327.92 335.796 1272.12 362.42C1216.32 389.044 1179.23 437.034 1179.23 437.034L1218.59 459.272C1218.59 459.272 1236.02 433.23 1301.01 400.163C1366 367.097 1393.85 338.727 1393.85 338.727Z" fill="#242424"/>
<path d="M1365.64 408.663C1292.41 442.333 1257.55 479.556 1257.55 479.556L1298.42 501.4C1320.31 479.452 1371.72 453.701 1416.75 434.393C1461.79 415.086 1506.15 368.966 1506.15 368.966C1539.55 387.485 1580.46 369.341 1580.46 369.341L1487.69 317.943C1460.73 349.845 1438.87 374.994 1365.64 408.663Z" fill="#242424"/>
</g>
<g opacity="0.38">
<path d="M1232.51 22.2385L1189.59 0C1147.32 15.2136 1089 84.6517 1089 84.6517L1129.15 107.098C1185.38 36.8701 1232.51 22.2385 1232.51 22.2385Z" fill="#242424"/>
<path d="M1376.85 26.727L1332.47 1.26709C1332.47 1.26709 1310.92 23.7965 1255.12 50.4203C1199.32 77.0442 1162.23 125.034 1162.23 125.034L1201.59 147.272C1201.59 147.272 1219.02 121.23 1284.01 88.1634C1349 55.0967 1376.85 26.727 1376.85 26.727Z" fill="#242424"/>
<path d="M1348.64 96.6628C1275.41 130.333 1240.55 167.556 1240.55 167.556L1281.42 189.4C1303.31 167.452 1354.72 141.701 1399.75 122.393C1444.79 103.086 1489.15 56.9664 1489.15 56.9664C1522.55 75.4847 1563.46 57.3405 1563.46 57.3405L1470.69 5.94263C1443.73 37.8454 1421.87 62.9936 1348.64 96.6628Z" fill="#242424"/>
</g>
</svg>
