<svg width="25" height="25" viewBox="0 0 25 25" fill="none" xmlns="http://www.w3.org/2000/svg">
<path d="M24.0031 9.05202C23.8009 8.44626 23.2897 8.01173 22.6702 7.91708L16.3811 6.97488L13.5502 0.965434C13.2688 0.369997 12.6932 0 12.047 0C11.4008 0 10.8251 0.369997 10.5438 0.965434L7.75416 6.95337L1.42377 7.91708C0.804241 8.01173 0.293989 8.44626 0.0909213 9.05202C-0.116449 9.67414 0.0367123 10.3487 0.491034 10.8125L5.06953 15.4986L3.98794 22.1035C3.88038 22.7634 4.14712 23.4096 4.68577 23.7891C5.20377 24.1565 5.86976 24.1926 6.4239 23.8872L12.0074 20.7689L17.6701 23.8872C18.2259 24.1926 18.8902 24.1548 19.4082 23.7891C19.9469 23.4096 20.2145 22.7634 20.106 22.1035L19.0227 15.49L23.603 10.8125C24.0573 10.3487 24.2104 9.67414 24.0031 9.05202Z" fill="#FFB800"/>
</svg>
