<svg width="46" height="44" viewBox="0 0 46 44" fill="none" xmlns="http://www.w3.org/2000/svg">
<path d="M17.9028 7.57404C19.8362 2.78932 20.803 0.396958 22.3736 0.0653878C22.7866 -0.0217959 23.2134 -0.0217959 23.6264 0.0653878C25.197 0.396958 26.1638 2.78932 28.0972 7.57404C29.1968 10.295 29.7465 11.6555 30.7752 12.5809C31.0638 12.8404 31.377 13.0716 31.7105 13.2711C32.8995 13.9824 34.3837 14.1144 37.3522 14.3783C42.3774 14.825 44.8899 15.0484 45.6572 16.4705C45.8161 16.765 45.9242 17.0839 45.9769 17.4139C46.2312 19.0072 44.3841 20.6753 40.6899 24.0116L39.664 24.938C37.9369 26.4978 37.0733 27.2777 36.5738 28.251C36.2742 28.8348 36.0733 29.4636 35.9792 30.1121C35.8222 31.1933 36.0751 32.3246 36.5809 34.5874L36.7616 35.3959C37.6686 39.4537 38.1221 41.4827 37.556 42.48C37.0475 43.3758 36.1108 43.9493 35.0761 43.9984C33.9242 44.053 32.3012 42.7401 29.0551 40.1145C26.9164 38.3846 25.8471 37.5196 24.66 37.1818C23.5752 36.873 22.4248 36.873 21.34 37.1818C20.1529 37.5196 19.0836 38.3846 16.9449 40.1145C13.6988 42.7401 12.0758 44.053 10.9239 43.9984C9.88919 43.9493 8.95254 43.3758 8.44403 42.48C7.87793 41.4827 8.33142 39.4537 9.23841 35.3959L9.41912 34.5874C9.92487 32.3246 10.1778 31.1933 10.0208 30.1121C9.92669 29.4636 9.72579 28.8348 9.42616 28.251C8.92667 27.2777 8.06311 26.4978 6.33599 24.938L5.31012 24.0116C1.61589 20.6753 -0.231225 19.0072 0.0231499 17.4139C0.0758332 17.0839 0.183876 16.765 0.342786 16.4705C1.11006 15.0484 3.62264 14.825 8.64778 14.3783C11.6163 14.1144 13.1005 13.9824 14.2895 13.2711C14.623 13.0716 14.9362 12.8404 15.2248 12.5809C16.2535 11.6555 16.8032 10.295 17.9028 7.57404Z" fill="white"/>
</svg>
