<svg width="129" height="129" viewBox="0 0 129 129" fill="none" xmlns="http://www.w3.org/2000/svg">
<mask id="path-1-inside-1_76_2615" fill="white">
<path d="M129 64.5C129 77.2569 125.217 89.7273 118.13 100.334C111.042 110.941 100.969 119.208 89.1831 124.09C77.3972 128.972 64.4285 130.249 51.9167 127.761C39.4049 125.272 27.9121 119.129 18.8916 110.108C9.87113 101.088 3.7281 89.5951 1.23935 77.0833C-1.2494 64.5715 0.0279179 51.6028 4.90977 39.8169C9.79162 28.0311 18.0588 17.9576 28.6657 10.8702C39.2727 3.78286 51.7431 -1.52124e-07 64.5 0V11.3963C53.9971 11.3963 43.73 14.5108 34.9972 20.3459C26.2643 26.181 19.4579 34.4747 15.4386 44.1781C11.4193 53.8815 10.3677 64.5589 12.4167 74.86C14.4657 85.1611 19.5234 94.6233 26.95 102.05C34.3767 109.477 43.8389 114.534 54.14 116.583C64.4411 118.632 75.1185 117.581 84.8219 113.561C94.5253 109.542 102.819 102.736 108.654 94.0028C114.489 85.27 117.604 75.0029 117.604 64.5H129Z"/>
</mask>
<path d="M129 64.5C129 77.2569 125.217 89.7273 118.13 100.334C111.042 110.941 100.969 119.208 89.1831 124.09C77.3972 128.972 64.4285 130.249 51.9167 127.761C39.4049 125.272 27.9121 119.129 18.8916 110.108C9.87113 101.088 3.7281 89.5951 1.23935 77.0833C-1.2494 64.5715 0.0279179 51.6028 4.90977 39.8169C9.79162 28.0311 18.0588 17.9576 28.6657 10.8702C39.2727 3.78286 51.7431 -1.52124e-07 64.5 0V11.3963C53.9971 11.3963 43.73 14.5108 34.9972 20.3459C26.2643 26.181 19.4579 34.4747 15.4386 44.1781C11.4193 53.8815 10.3677 64.5589 12.4167 74.86C14.4657 85.1611 19.5234 94.6233 26.95 102.05C34.3767 109.477 43.8389 114.534 54.14 116.583C64.4411 118.632 75.1185 117.581 84.8219 113.561C94.5253 109.542 102.819 102.736 108.654 94.0028C114.489 85.27 117.604 75.0029 117.604 64.5H129Z" fill="#7F5AF0" stroke="#7F5AF0" stroke-width="8" mask="url(#path-1-inside-1_76_2615)"/>
</svg>
