<svg width="30" height="28" viewBox="0 0 30 28" fill="none" xmlns="http://www.w3.org/2000/svg">
<path d="M29.4126 1.45794C28.9299 1.01574 28.244 0.868374 27.6222 1.07328L1.24402 9.76865C0.525131 10.0056 0.0376305 10.6473 0.00206411 11.4034C-0.0334437 12.1594 0.391654 12.8441 1.08505 13.1476L7.60859 16.0018C7.6404 16.1494 9.51312 24.8352 9.57681 25.1304C9.65855 25.5096 9.85103 25.8474 10.2588 25.9513C10.6712 26.0564 10.9626 25.831 11.2703 25.6006C11.4416 25.4724 16.1114 21.9757 16.1114 21.9757L21.7709 26.6069C22.1005 26.8767 22.5034 27.0175 22.9142 27.0175C23.1098 27.0174 23.3073 26.9855 23.4993 26.9204C24.095 26.7184 24.5366 26.2323 24.6805 25.62L29.952 3.20779C30.1018 2.57058 29.8952 1.90015 29.4126 1.45794ZM11.692 17.6373C11.6888 17.6449 11.6857 17.6536 11.6827 17.6639L10.5914 21.4764L9.37361 15.8283L17.7477 11.1757L11.8929 17.2974C11.8007 17.3939 11.7328 17.5105 11.692 17.6373ZM12.0384 22.8243L12.534 21.0926L13.0081 19.4362L14.7068 20.8263L12.0384 22.8243ZM28.2368 2.80431L22.9654 25.2165C22.9628 25.2277 22.9593 25.243 22.9335 25.2518C22.9079 25.2604 22.8955 25.2505 22.8867 25.2433L16.6939 20.1756C16.6937 20.1755 16.6936 20.1753 16.6934 20.1752L13.8242 17.8272L23.0423 8.18867C23.3434 7.87384 23.3691 7.38628 23.1029 7.04146C22.8366 6.69658 22.3584 6.59808 21.9777 6.80972L8.32824 14.3935L1.79134 11.5333C1.77142 11.5246 1.76046 11.5198 1.76204 11.4861C1.76363 11.4525 1.77499 11.4487 1.79562 11.4419L28.1738 2.7466C28.1866 2.74244 28.201 2.73763 28.2222 2.75697C28.2434 2.77642 28.2399 2.79119 28.2368 2.80431Z" fill="url(#paint0_linear_212_96)"/>
<defs>
<linearGradient id="paint0_linear_212_96" x1="-2.8754" y1="-10.1755" x2="32.089" y2="-8.55727" gradientUnits="userSpaceOnUse">
<stop stop-color="#00B292"/>
<stop offset="0.290505" stop-color="#2DFFD9"/>
<stop offset="0.635914" stop-color="#54FFE0"/>
<stop offset="0.978018" stop-color="#03776F"/>
</linearGradient>
</defs>
</svg>
