<svg width="46" height="40" viewBox="0 0 46 40" fill="none" xmlns="http://www.w3.org/2000/svg">
<path d="M4.10647 22.6886L21.5066 39.0611C22.106 39.6251 22.4057 39.9071 22.759 39.9765C22.9182 40.0078 23.0818 40.0078 23.241 39.9765C23.5943 39.9071 23.894 39.6251 24.4934 39.0611L41.8935 22.6886C46.7892 18.0821 47.3837 10.5016 43.2662 5.18584L42.492 4.18632C37.5663 -2.17282 27.6791 -1.10634 24.218 6.15744C23.7291 7.18349 22.2709 7.18349 21.782 6.15744C18.3209 -1.10634 8.43372 -2.17281 3.508 4.18633L2.73379 5.18585C-1.38372 10.5016 -0.789206 18.0821 4.10647 22.6886Z" fill="white"/>
</svg>
