<svg width="34" height="35" viewBox="0 0 34 35" fill="none" xmlns="http://www.w3.org/2000/svg">
<path fill-rule="evenodd" clip-rule="evenodd" d="M34 14.6147C34 8.75019 34 5.81793 32.5675 3.71155C31.9473 2.79967 31.1505 2.01674 30.2223 1.40744C28.0784 0 25.094 0 19.125 0H14.875C8.90604 0 5.92155 0 3.77765 1.40744C2.84954 2.01674 2.05266 2.79967 1.43251 3.71155C0 5.81793 0 8.75019 0 14.6147C0 20.4792 0 23.4115 1.43251 25.5179C2.05266 26.4297 2.84954 27.2127 3.77765 27.822C5.65052 29.0515 8.16488 29.2069 12.75 29.2266V29.2294L15.0993 33.8459C15.8825 35.3847 18.1175 35.3847 18.9007 33.8459L21.25 29.2294V29.2266C25.8351 29.2069 28.3495 29.0515 30.2223 27.822C31.1505 27.2127 31.9473 26.4297 32.5675 25.5179C34 23.4115 34 20.4792 34 14.6147ZM10.625 8.35126C9.4514 8.35126 8.5 9.28601 8.5 10.4391C8.5 11.5921 9.4514 12.5269 10.625 12.5269H23.375C24.5486 12.5269 25.5 11.5921 25.5 10.4391C25.5 9.28601 24.5486 8.35126 23.375 8.35126H10.625ZM10.625 16.7025C9.4514 16.7025 8.5 17.6373 8.5 18.7903C8.5 19.9434 9.4514 20.8782 10.625 20.8782H17C18.1736 20.8782 19.125 19.9434 19.125 18.7903C19.125 17.6373 18.1736 16.7025 17 16.7025H10.625Z" fill="white"/>
</svg>
