<?xml version="1.0" standalone="no"?>
<!DOCTYPE svg PUBLIC "-//W3C//DTD SVG 20010904//EN"
 "http://www.w3.org/TR/2001/REC-SVG-20010904/DTD/svg10.dtd">
<svg version="1.0" xmlns="http://www.w3.org/2000/svg"
 width="512.000000pt" height="512.000000pt" viewBox="0 0 512.000000 512.000000"
 preserveAspectRatio="xMidYMid meet">
<metadata>
Created by potrace 1.16, written by Peter Selinger 2001-2019
</metadata>
<g transform="translate(0.000000,512.000000) scale(0.100000,-0.100000)"
fill="#000000" stroke="none">
<path d="M1143 4861 c-104 -38 -180 -107 -231 -211 l-27 -55 0 -2035 0 -2035
29 -60 c38 -77 114 -153 191 -191 l60 -29 1395 0 1395 0 60 29 c77 38 153 114
191 191 l29 60 0 2035 0 2035 -29 60 c-38 77 -114 153 -191 191 l-60 29 -1380
2 c-1326 2 -1382 2 -1432 -16z m2721 -315 c23 -9 37 -24 45 -46 16 -46 16
-954 0 -1000 -23 -63 49 -60 -1347 -60 -921 0 -1278 3 -1302 11 -59 21 -60 27
-60 547 0 324 4 479 11 502 22 62 -50 59 1347 60 1066 0 1278 -2 1306 -14z
m-2164 -1277 c53 -19 60 -51 60 -269 0 -218 -7 -250 -60 -269 -50 -17 -402
-15 -444 3 -49 21 -56 52 -56 266 0 211 7 245 54 266 40 17 397 20 446 3z
m720 0 c53 -19 60 -51 60 -269 0 -218 -7 -250 -60 -269 -50 -17 -402 -15 -444
3 -49 21 -56 52 -56 266 0 211 7 245 54 266 40 17 397 20 446 3z m720 0 c53
-19 60 -51 60 -269 0 -218 -7 -250 -60 -269 -50 -17 -402 -15 -444 3 -49 21
-56 52 -56 266 0 211 7 245 54 266 40 17 397 20 446 3z m720 0 c53 -19 60 -51
60 -269 0 -218 -7 -250 -60 -269 -50 -17 -402 -15 -444 3 -49 21 -56 52 -56
266 0 211 7 245 54 266 40 17 397 20 446 3z m-2160 -720 c53 -19 60 -51 60
-269 0 -218 -7 -250 -60 -269 -50 -17 -402 -15 -444 3 -49 21 -56 52 -56 266
0 211 7 245 54 266 40 17 397 20 446 3z m720 0 c53 -19 60 -51 60 -269 0 -218
-7 -250 -60 -269 -50 -17 -402 -15 -444 3 -49 21 -56 52 -56 266 0 211 7 245
54 266 40 17 397 20 446 3z m720 0 c53 -19 60 -51 60 -269 0 -218 -7 -250 -60
-269 -50 -17 -402 -15 -444 3 -49 21 -56 52 -56 266 0 211 7 245 54 266 40 17
397 20 446 3z m720 0 c53 -19 60 -51 60 -269 0 -218 -7 -250 -60 -269 -50 -17
-402 -15 -444 3 -49 21 -56 52 -56 266 0 211 7 245 54 266 40 17 397 20 446 3z
m-2160 -720 c53 -19 60 -51 60 -269 0 -218 -7 -250 -60 -269 -50 -17 -402 -15
-444 3 -49 21 -56 52 -56 266 0 211 7 245 54 266 40 17 397 20 446 3z m720 0
c53 -19 60 -51 60 -269 0 -218 -7 -250 -60 -269 -50 -17 -402 -15 -444 3 -49
21 -56 52 -56 266 0 211 7 245 54 266 40 17 397 20 446 3z m720 0 c53 -19 60
-51 60 -269 0 -218 -7 -250 -60 -269 -50 -17 -402 -15 -444 3 -49 21 -56 52
-56 266 0 211 7 245 54 266 40 17 397 20 446 3z m720 0 c60 -21 60 -19 60
-629 0 -610 0 -608 -60 -629 -44 -15 -396 -15 -440 0 -60 21 -60 19 -60 627 0
384 3 559 11 582 19 52 48 59 265 60 118 0 204 -4 224 -11z m-2160 -720 c53
-19 60 -51 60 -269 0 -218 -7 -250 -60 -269 -50 -17 -402 -15 -444 3 -49 21
-56 52 -56 266 0 211 7 245 54 266 40 17 397 20 446 3z m720 0 c53 -19 60 -51
60 -269 0 -218 -7 -250 -60 -269 -50 -17 -402 -15 -444 3 -49 21 -56 52 -56
266 0 211 7 245 54 266 40 17 397 20 446 3z m720 0 c53 -19 60 -51 60 -269 0
-218 -7 -250 -60 -269 -50 -17 -402 -15 -444 3 -49 21 -56 52 -56 266 0 211 7
245 54 266 40 17 397 20 446 3z"/>
<path d="M1360 4000 l0 -400 1200 0 1200 0 0 400 0 400 -1200 0 -1200 0 0
-400z"/>
<path d="M1360 3000 l0 -120 120 0 120 0 0 120 0 120 -120 0 -120 0 0 -120z"/>
<path d="M2080 3000 l0 -120 120 0 120 0 0 120 0 120 -120 0 -120 0 0 -120z"/>
<path d="M2800 3000 l0 -120 120 0 120 0 0 120 0 120 -120 0 -120 0 0 -120z"/>
<path d="M3520 3000 l0 -120 120 0 120 0 0 120 0 120 -120 0 -120 0 0 -120z"/>
<path d="M1360 2280 l0 -120 120 0 120 0 0 120 0 120 -120 0 -120 0 0 -120z"/>
<path d="M2080 2280 l0 -120 120 0 120 0 0 120 0 120 -120 0 -120 0 0 -120z"/>
<path d="M2800 2280 l0 -120 120 0 120 0 0 120 0 120 -120 0 -120 0 0 -120z"/>
<path d="M3520 2280 l0 -120 120 0 120 0 0 120 0 120 -120 0 -120 0 0 -120z"/>
<path d="M1360 1560 l0 -120 120 0 120 0 0 120 0 120 -120 0 -120 0 0 -120z"/>
<path d="M2080 1560 l0 -120 120 0 120 0 0 120 0 120 -120 0 -120 0 0 -120z"/>
<path d="M2800 1560 l0 -120 120 0 120 0 0 120 0 120 -120 0 -120 0 0 -120z"/>
<path d="M3520 1200 l0 -480 120 0 120 0 0 480 0 480 -120 0 -120 0 0 -480z"/>
<path d="M1360 840 l0 -120 120 0 120 0 0 120 0 120 -120 0 -120 0 0 -120z"/>
<path d="M2080 840 l0 -120 120 0 120 0 0 120 0 120 -120 0 -120 0 0 -120z"/>
<path d="M2800 840 l0 -120 120 0 120 0 0 120 0 120 -120 0 -120 0 0 -120z"/>
</g>
</svg>
