<?xml version="1.0" standalone="no"?>
<!DOCTYPE svg PUBLIC "-//W3C//DTD SVG 20010904//EN"
 "http://www.w3.org/TR/2001/REC-SVG-20010904/DTD/svg10.dtd">
<svg version="1.0" xmlns="http://www.w3.org/2000/svg"
 width="512.000000pt" height="512.000000pt" viewBox="0 0 512.000000 512.000000"
 preserveAspectRatio="xMidYMid meet">
<metadata>
Created by potrace 1.16, written by Peter Selinger 2001-2019
</metadata>
<g transform="translate(0.000000,512.000000) scale(0.100000,-0.100000)"
fill="#000000" stroke="none">
<path d="M2315 5103 c-240 -43 -565 -204 -617 -306 -52 -103 21 -222 136 -222
46 0 61 6 132 52 165 108 322 165 501 182 241 22 468 -38 687 -182 71 -46 86
-52 132 -52 115 0 188 119 136 222 -54 104 -380 265 -627 307 -113 20 -369 19
-480 -1z"/>
<path d="M2485 4519 c-127 -11 -240 -51 -350 -124 -70 -47 -99 -99 -92 -163 9
-82 70 -137 150 -137 44 0 63 7 122 43 86 52 159 75 245 75 86 0 159 -23 245
-75 108 -66 186 -59 248 23 50 68 27 166 -54 225 -137 101 -326 150 -514 133z"/>
<path d="M1511 3890 c-119 -43 -207 -123 -264 -239 l-32 -66 0 -1630 0 -1630
32 -66 c59 -119 148 -198 270 -239 57 -20 82 -20 1063 -18 l1005 3 70 34 c92
45 171 124 216 216 l34 70 0 1630 0 1630 -34 70 c-45 91 -124 171 -216 216
l-70 34 -1010 2 c-977 2 -1012 2 -1064 -17z m522 -607 c40 -20 67 -70 67 -123
0 -142 -182 -193 -261 -74 -33 51 -20 146 25 183 26 22 89 40 116 34 14 -3 38
-12 53 -20z m600 0 c40 -20 67 -70 67 -123 0 -142 -182 -193 -261 -74 -33 51
-20 146 25 183 26 22 89 40 116 34 14 -3 38 -12 53 -20z m600 0 c40 -20 67
-70 67 -123 0 -142 -182 -193 -261 -74 -33 51 -20 146 25 183 26 22 89 40 116
34 14 -3 38 -12 53 -20z m-1200 -600 c40 -20 67 -70 67 -123 0 -142 -182 -193
-261 -74 -33 51 -20 146 25 183 26 22 89 40 116 34 14 -3 38 -12 53 -20z m600
0 c40 -20 67 -70 67 -123 0 -142 -182 -193 -261 -74 -33 51 -20 146 25 183 26
22 89 40 116 34 14 -3 38 -12 53 -20z m600 0 c40 -20 67 -70 67 -123 0 -142
-182 -193 -261 -74 -33 51 -20 146 25 183 26 22 89 40 116 34 14 -3 38 -12 53
-20z m-505 -599 c88 -19 227 -87 300 -147 176 -146 272 -349 272 -576 0 -127
-18 -207 -69 -315 -72 -154 -193 -277 -346 -351 -113 -55 -202 -76 -325 -76
-123 0 -212 21 -325 76 -153 74 -266 188 -340 340 -57 116 -75 194 -75 325 0
131 18 210 75 325 73 150 178 258 325 334 161 84 320 104 508 65z"/>
<path d="M2411 1791 c-120 -45 -207 -124 -264 -240 -31 -64 -32 -71 -32 -191
0 -120 1 -127 32 -191 58 -118 146 -197 269 -240 49 -17 77 -20 164 -17 95 3
112 7 175 38 92 44 171 123 216 215 33 68 34 73 34 195 0 122 -1 127 -34 195
-45 92 -124 171 -216 215 -65 32 -79 35 -180 37 -90 3 -120 0 -164 -16z"/>
</g>
</svg>
